<?xml version="1.0" encoding="utf-8"?>
<!-- Generator: Adobe Illustrator 13.0.0, SVG Export Plug-In . SVG Version: 6.00 Build 14948)  -->
<!DOCTYPE svg PUBLIC "-//W3C//DTD SVG 1.1//EN" "http://www.w3.org/Graphics/SVG/1.1/DTD/svg11.dtd">
<svg version="1.1" id="Layer_1" xmlns="http://www.w3.org/2000/svg" xmlns:xlink="http://www.w3.org/1999/xlink" x="0px" y="0px"
	 width="52.01px" height="52.01px" viewBox="0 0 52.01 52.01" enable-background="new 0 0 52.01 52.01" xml:space="preserve">
<path fill-rule="evenodd" clip-rule="evenodd" d="M30.65,11.1c4.88,1.52,8.74,5.38,10.26,10.26c-1.84-1.24-4.39-2.24-7.39-2.87
	C32.89,15.49,31.89,12.94,30.65,11.1z M41.61,25.98V26c0,2.62-3.06,4.06-7.62,4.74c0.19-1.51,0.29-3.1,0.29-4.74
	c0-1.63-0.1-3.22-0.29-4.73C38.54,21.94,41.59,23.38,41.61,25.98z M40.91,30.65c-1.53,4.88-5.38,8.73-10.26,10.25
	c1.24-1.83,2.24-4.38,2.87-7.38C36.52,32.89,39.07,31.89,40.91,30.65z M21.36,40.9c-4.88-1.52-8.73-5.37-10.25-10.25
	c1.83,1.24,4.38,2.24,7.38,2.87C19.12,36.52,20.12,39.07,21.36,40.9z M10.4,26.02V26c0-2.61,3.06-4.06,7.62-4.73
	c-0.19,1.51-0.29,3.1-0.29,4.73c0,1.64,0.1,3.23,0.29,4.74C13.47,30.07,10.42,28.63,10.4,26.02z M11.11,21.36
	c1.52-4.88,5.37-8.74,10.25-10.26c-1.24,1.84-2.24,4.39-2.87,7.39C15.49,19.12,12.94,20.12,11.11,21.36z M26.01,8
	C16.07,8,8.02,16.04,8,25.97V26c0,9.95,8.06,18.01,18.01,18.01c9.93,0,17.99-8.05,18-17.98V26C44.01,16.06,35.95,8,26.01,8z
	 M26.01,10.4c2.61,0,4.06,3.06,4.73,7.62c-1.51-0.19-3.1-0.29-4.73-0.29c-1.64,0-3.23,0.1-4.74,0.29
	C21.95,13.46,23.39,10.4,26.01,10.4z M31.06,20.95c0.12,1.59,0.17,3.29,0.17,5.05c0,1.77-0.05,3.47-0.17,5.05
	c-1.59,0.12-3.29,0.18-5.05,0.18c-1.77,0-3.47-0.06-5.05-0.18c-0.12-1.58-0.18-3.28-0.18-5.05c0-1.76,0.06-3.46,0.18-5.05
	c1.58-0.12,3.28-0.17,5.05-0.17C27.77,20.78,29.47,20.83,31.06,20.95z M30.74,33.99c-0.67,4.56-2.12,7.62-4.73,7.62
	c-2.62,0-4.06-3.06-4.74-7.62c1.51,0.19,3.1,0.29,4.74,0.29C27.64,34.28,29.23,34.18,30.74,33.99z M26.01,2.93
	c12.74,0,23.07,10.33,23.07,23.07c0,12.75-10.33,23.08-23.07,23.08c-4.44,0-8.58-1.26-12.1-3.43L13,45.93v-0.92l-10,4l3-11H5.54
	l0.22-0.94C3.96,33.79,2.93,30.01,2.93,26C2.93,13.26,13.26,2.93,26.01,2.93z M12.43,48.19c3.95,2.42,8.6,3.82,13.58,3.82
	c14.36,0,26-11.64,26-26.01c0-14.36-11.64-26-26-26C11.64,0,0,11.64,0,26c0,4.37,1.08,8.49,2.98,12.1L0,52.01L12.43,48.19z"/>
</svg>
