<?xml version="1.0" encoding="utf-8"?>
<!-- Generator: Adobe Illustrator 13.0.0, SVG Export Plug-In . SVG Version: 6.00 Build 14948)  -->
<!DOCTYPE svg PUBLIC "-//W3C//DTD SVG 1.1//EN" "http://www.w3.org/Graphics/SVG/1.1/DTD/svg11.dtd">
<svg version="1.1" id="Layer_1" xmlns="http://www.w3.org/2000/svg" xmlns:xlink="http://www.w3.org/1999/xlink" x="0px" y="0px"
	 width="206px" height="202px" viewBox="0 0 206 202" enable-background="new 0 0 206 202" xml:space="preserve">
<path fill-rule="evenodd" clip-rule="evenodd" fill="#CC9900" d="M0,20.68h4.98V8.05c0.51-1.08,1.14-1.9,1.88-2.46
	C7.6,5.03,8.49,4.75,9.52,4.75c0.58,0,1.05,0.04,1.4,0.13c0.35,0.1,0.62,0.14,0.82,0.14c0.23,0,0.41-0.05,0.55-0.15
	c0.13-0.09,0.22-0.26,0.26-0.5l0.65-3.66C12.52,0.24,11.68,0,10.65,0C9.42,0,8.3,0.36,7.3,1.09C6.31,1.82,5.44,2.81,4.7,4.07
	L4.4,1.62C4.33,1.17,4.2,0.86,4,0.67C3.79,0.49,3.44,0.4,2.93,0.4H0V20.68z M26.14,3.6c0.74,0,1.39,0.12,1.94,0.36
	c0.55,0.25,1.01,0.58,1.37,1c0.36,0.43,0.63,0.92,0.81,1.48c0.17,0.56,0.26,1.15,0.26,1.79h-9.36c0.23-1.48,0.75-2.62,1.57-3.42
	C23.55,4,24.69,3.6,26.14,3.6z M26.04,0.08c-1.55,0-2.93,0.26-4.16,0.79c-1.24,0.53-2.28,1.24-3.13,2.15
	c-0.86,0.9-1.51,1.96-1.97,3.19c-0.46,1.22-0.69,2.52-0.69,3.9c0,1.79,0.27,3.35,0.79,4.7c0.53,1.36,1.25,2.49,2.16,3.41
	c0.91,0.92,1.99,1.61,3.23,2.08c1.24,0.47,2.57,0.7,4.01,0.7c0.73,0,1.48-0.05,2.25-0.16c0.78-0.1,1.54-0.28,2.28-0.54
	c0.75-0.26,1.47-0.6,2.15-1.03c0.69-0.43,1.31-0.96,1.86-1.59l-1.45-1.79c-0.11-0.14-0.24-0.26-0.39-0.34
	c-0.15-0.08-0.32-0.12-0.52-0.12c-0.31,0-0.63,0.1-0.96,0.28s-0.71,0.39-1.15,0.61c-0.44,0.22-0.95,0.43-1.53,0.61
	c-0.59,0.18-1.29,0.27-2.09,0.27c-1.64,0-2.96-0.48-3.96-1.45c-0.99-0.97-1.56-2.49-1.71-4.56h12.79c0.23,0,0.42-0.03,0.56-0.09
	c0.15-0.06,0.27-0.16,0.36-0.29c0.09-0.14,0.15-0.34,0.18-0.58C34.98,9.98,35,9.68,35,9.31c0-1.47-0.22-2.78-0.67-3.92
	c-0.44-1.15-1.06-2.11-1.85-2.9c-0.8-0.79-1.74-1.39-2.84-1.8C28.55,0.28,27.35,0.08,26.04,0.08z"/>
<g>
	<path fill-rule="evenodd" clip-rule="evenodd" fill="#666666" d="M187.24,106.1c0,0.17,0.03,0.34,0.09,0.49
		c0.06,0.15,0.15,0.28,0.26,0.39c0.11,0.11,0.24,0.19,0.4,0.25c0.15,0.07,0.31,0.1,0.48,0.1c0.17,0,0.33-0.03,0.48-0.1
		c0.15-0.06,0.28-0.14,0.39-0.25c0.11-0.11,0.2-0.24,0.26-0.39c0.07-0.15,0.1-0.32,0.1-0.49s-0.03-0.33-0.1-0.48
		c-0.06-0.16-0.15-0.29-0.26-0.4c-0.11-0.11-0.24-0.19-0.39-0.26c-0.15-0.07-0.31-0.1-0.48-0.1c-0.17,0-0.33,0.03-0.48,0.1
		c-0.16,0.07-0.29,0.15-0.4,0.26c-0.11,0.11-0.2,0.24-0.26,0.4C187.27,105.77,187.24,105.93,187.24,106.1z M194.86,100.15
		c0.3,0,0.56,0.06,0.78,0.16c0.22,0.1,0.4,0.23,0.55,0.41c0.15,0.17,0.26,0.38,0.33,0.61s0.1,0.48,0.1,0.74h-3.77
		c0.09-0.61,0.3-1.08,0.64-1.42C193.82,100.32,194.27,100.15,194.86,100.15z M194.82,98.7c-0.63,0-1.18,0.11-1.68,0.33
		c-0.5,0.22-0.92,0.51-1.26,0.89c-0.34,0.37-0.61,0.81-0.79,1.31c-0.19,0.51-0.28,1.04-0.28,1.62c0,0.73,0.11,1.38,0.32,1.94
		s0.5,1.03,0.87,1.41c0.37,0.38,0.8,0.66,1.3,0.86c0.5,0.19,1.04,0.29,1.62,0.29c0.29,0,0.59-0.03,0.9-0.07
		c0.31-0.04,0.62-0.12,0.92-0.22c0.3-0.11,0.59-0.25,0.86-0.43c0.28-0.18,0.53-0.4,0.75-0.66l-0.58-0.74
		c-0.05-0.06-0.1-0.1-0.16-0.14c-0.06-0.03-0.13-0.04-0.21-0.04c-0.12,0-0.25,0.03-0.38,0.11l-0.47,0.25
		c-0.17,0.09-0.38,0.18-0.62,0.25c-0.23,0.08-0.51,0.12-0.84,0.12c-0.66,0-1.19-0.2-1.59-0.6c-0.4-0.4-0.63-1.03-0.69-1.89h5.15
		c0.09,0,0.17-0.01,0.23-0.03c0.06-0.03,0.11-0.07,0.14-0.13c0.04-0.05,0.06-0.13,0.07-0.24c0.02-0.1,0.02-0.22,0.02-0.38
		c0-0.6-0.08-1.14-0.26-1.62c-0.18-0.47-0.43-0.87-0.75-1.19c-0.32-0.33-0.7-0.58-1.14-0.75C195.83,98.79,195.34,98.7,194.82,98.7z
		 M205.26,100.46l0.45-0.72c-0.31-0.31-0.71-0.56-1.18-0.75c-0.47-0.19-0.99-0.29-1.56-0.29c-0.52,0-0.97,0.07-1.36,0.21
		c-0.4,0.14-0.73,0.32-0.99,0.55c-0.26,0.23-0.46,0.51-0.6,0.82c-0.13,0.31-0.2,0.63-0.2,0.98c0,0.37,0.06,0.68,0.18,0.94
		c0.11,0.26,0.27,0.48,0.46,0.66c0.19,0.18,0.41,0.33,0.66,0.45c0.24,0.11,0.5,0.22,0.75,0.3l0.76,0.24
		c0.25,0.08,0.46,0.16,0.66,0.25c0.19,0.1,0.34,0.2,0.46,0.33c0.12,0.13,0.17,0.29,0.17,0.48c0,0.13-0.02,0.26-0.07,0.38
		c-0.05,0.12-0.14,0.23-0.25,0.32c-0.11,0.1-0.25,0.17-0.42,0.23c-0.17,0.06-0.37,0.08-0.61,0.08c-0.31,0-0.56-0.03-0.75-0.1
		c-0.2-0.07-0.37-0.15-0.52-0.23l-0.39-0.23c-0.11-0.07-0.22-0.11-0.35-0.11c-0.12,0-0.23,0.03-0.31,0.08
		c-0.08,0.05-0.15,0.12-0.21,0.21l-0.46,0.78c0.16,0.14,0.35,0.28,0.56,0.4c0.22,0.13,0.45,0.24,0.7,0.33
		c0.25,0.09,0.52,0.17,0.79,0.22s0.55,0.08,0.84,0.08c0.54,0,1.01-0.07,1.43-0.21c0.41-0.14,0.76-0.34,1.04-0.58
		c0.28-0.25,0.5-0.55,0.64-0.89c0.15-0.34,0.22-0.71,0.22-1.11c0-0.34-0.06-0.63-0.17-0.87c-0.12-0.24-0.27-0.44-0.47-0.61
		c-0.19-0.18-0.41-0.32-0.65-0.43c-0.24-0.11-0.49-0.21-0.75-0.3l-0.75-0.24c-0.24-0.07-0.46-0.15-0.65-0.25
		c-0.19-0.09-0.35-0.2-0.46-0.32c-0.12-0.12-0.18-0.27-0.18-0.45c0-0.28,0.12-0.5,0.34-0.67c0.23-0.16,0.54-0.25,0.94-0.25
		c0.25,0,0.47,0.03,0.66,0.08c0.19,0.06,0.35,0.12,0.5,0.19l0.39,0.18c0.11,0.05,0.21,0.08,0.31,0.08c0.09,0,0.17-0.02,0.23-0.05
		C205.15,100.61,205.2,100.55,205.26,100.46z"/>
	<g>
		<path fill-rule="evenodd" clip-rule="evenodd" fill="#CC9900" d="M145.52,102.92c0.71-2.85-4.89-2.69-6.66-2.92
			c0,0-0.09-4.73,1.33-4.17c2.57,1.01,1.67,0.66,5.02,0.3c0.05,0-0.81,1.79-0.81,1.79c2.1,0.52,5.69,2.15,5.48,4.49
			c-0.62,7.21-11.57,5.93-12.79,4.4c-1.22-1.54-1.53-4.09,1.12-3.68C140.85,103.54,144.57,106.72,145.52,102.92z"/>
	</g>
	<path fill-rule="evenodd" clip-rule="evenodd" fill="#CC0033" d="M48.34,91.83c-1.76,0-3.06-0.59-3.9-1.77s-1.26-2.89-1.26-5.14
		s0.42-3.97,1.26-5.17c0.84-1.19,2.14-1.79,3.9-1.79c1.73,0,3.01,0.6,3.85,1.78c0.83,1.19,1.25,2.91,1.25,5.18
		c0,2.26-0.42,3.98-1.25,5.15C51.35,91.25,50.07,91.83,48.34,91.83z M48.34,74.1c-1.56,0-2.97,0.25-4.25,0.76
		c-1.27,0.5-2.36,1.22-3.26,2.14c-0.9,0.93-1.59,2.06-2.09,3.39C38.25,81.73,38,83.22,38,84.87c0,1.66,0.25,3.16,0.74,4.49
		c0.5,1.34,1.19,2.47,2.09,3.41s1.99,1.66,3.26,2.17c1.28,0.5,2.69,0.75,4.25,0.75c1.55,0,2.97-0.25,4.23-0.75
		c1.27-0.51,2.35-1.23,3.24-2.17c0.9-0.94,1.59-2.07,2.07-3.41c0.49-1.33,0.73-2.83,0.73-4.49c0-1.65-0.24-3.14-0.73-4.48
		c-0.48-1.33-1.17-2.46-2.07-3.39c-0.89-0.92-1.97-1.64-3.24-2.14C51.31,74.35,49.89,74.1,48.34,74.1z M62.59,95.37h5.02V80.03
		c0.54-0.63,1.13-1.12,1.76-1.48C70,78.18,70.67,78,71.39,78c1.1,0,1.92,0.32,2.49,0.96c0.56,0.64,0.84,1.67,0.84,3.07v13.34h5.04
		V82.03c0-0.66,0.09-1.23,0.28-1.74c0.19-0.5,0.45-0.92,0.78-1.25c0.33-0.34,0.72-0.59,1.16-0.77S82.9,78,83.41,78
		c1.13,0,1.98,0.34,2.56,1.01c0.58,0.68,0.87,1.68,0.87,3.02v13.34h5.02V82.03c0-1.27-0.16-2.39-0.48-3.37
		c-0.31-0.98-0.78-1.81-1.39-2.49c-0.61-0.69-1.36-1.2-2.25-1.56c-0.9-0.35-1.92-0.53-3.07-0.53c-0.66,0-1.32,0.08-1.98,0.23
		s-1.28,0.38-1.86,0.69s-1.11,0.72-1.6,1.22c-0.49,0.49-0.9,1.09-1.22,1.78c-0.42-1.18-1.05-2.13-1.9-2.85
		c-0.85-0.71-1.93-1.07-3.24-1.07c-0.62,0-1.19,0.07-1.71,0.22c-0.53,0.14-1.01,0.33-1.47,0.58c-0.45,0.24-0.88,0.54-1.28,0.88
		c-0.4,0.34-0.78,0.71-1.14,1.12l-0.33-1.55c-0.2-0.62-0.63-0.92-1.28-0.92h-3.07V95.37z M105.43,77.72c0.74,0,1.39,0.12,1.95,0.38
		c0.55,0.25,1.01,0.59,1.38,1.03c0.36,0.43,0.63,0.94,0.81,1.52c0.18,0.58,0.26,1.19,0.26,1.85h-9.42c0.23-1.53,0.76-2.71,1.59-3.54
		C102.82,78.13,103.97,77.72,105.43,77.72z M105.33,74.08c-1.56,0-2.96,0.27-4.2,0.82c-1.24,0.54-2.29,1.28-3.15,2.22
		c-0.86,0.93-1.52,2.03-1.98,3.29c-0.46,1.26-0.69,2.61-0.69,4.04c0,1.84,0.27,3.46,0.8,4.85c0.52,1.4,1.25,2.57,2.17,3.52
		c0.92,0.95,2,1.66,3.25,2.15c1.24,0.48,2.59,0.72,4.04,0.72c0.73,0,1.49-0.05,2.26-0.16c0.78-0.11,1.55-0.3,2.3-0.56
		c0.75-0.27,1.47-0.62,2.16-1.06c0.69-0.45,1.32-0.99,1.87-1.65l-1.46-1.84c-0.11-0.15-0.24-0.27-0.39-0.35
		c-0.15-0.08-0.32-0.13-0.53-0.13c-0.31,0-0.63,0.1-0.96,0.29c-0.33,0.19-0.72,0.4-1.16,0.63s-0.95,0.44-1.54,0.63
		c-0.59,0.19-1.29,0.28-2.1,0.28c-1.66,0-2.98-0.5-3.98-1.5c-1.01-1-1.58-2.57-1.73-4.71h12.88c0.23,0,0.42-0.03,0.56-0.09
		c0.15-0.06,0.27-0.16,0.36-0.31c0.09-0.14,0.15-0.34,0.18-0.59c0.04-0.26,0.05-0.57,0.05-0.96c0-1.51-0.22-2.86-0.67-4.04
		c-0.44-1.19-1.07-2.18-1.87-3c-0.79-0.81-1.75-1.43-2.85-1.85C107.85,74.29,106.64,74.08,105.33,74.08z M118.65,95.37h5.02V82.31
		c0.51-1.11,1.14-1.96,1.88-2.54c0.75-0.58,1.64-0.87,2.69-0.87c0.58,0,1.04,0.05,1.4,0.15c0.35,0.09,0.63,0.14,0.83,0.14
		c0.23,0,0.41-0.05,0.55-0.15c0.13-0.11,0.22-0.28,0.26-0.53l0.65-3.77c-0.68-0.49-1.53-0.74-2.56-0.74c-1.24,0-2.37,0.38-3.37,1.13
		s-1.87,1.78-2.62,3.08l-0.3-2.53c-0.07-0.47-0.21-0.79-0.41-0.99c-0.2-0.19-0.56-0.28-1.08-0.28h-2.94V95.37z M149.95,78.86
		l1.32-1.84c-0.94-0.94-1.99-1.67-3.16-2.18c-1.17-0.5-2.54-0.76-4.09-0.76c-1.64,0-3.09,0.27-4.35,0.82
		c-1.26,0.54-2.32,1.3-3.17,2.26s-1.5,2.1-1.94,3.41c-0.44,1.32-0.66,2.75-0.66,4.29c0,1.71,0.25,3.24,0.74,4.59
		c0.5,1.34,1.17,2.47,2.01,3.4c0.85,0.93,1.84,1.63,2.98,2.12c1.14,0.48,2.35,0.72,3.63,0.72c0.74,0,1.47-0.05,2.22-0.16
		c0.74-0.11,1.46-0.3,2.16-0.56c0.7-0.27,1.37-0.62,2.02-1.06c0.65-0.45,1.25-0.99,1.81-1.65l-1.44-1.85
		c-0.21-0.32-0.51-0.47-0.92-0.47c-0.31,0-0.59,0.09-0.84,0.29s-0.54,0.42-0.88,0.65c-0.34,0.24-0.76,0.46-1.25,0.66
		c-0.5,0.19-1.14,0.29-1.94,0.29c-0.8,0-1.52-0.15-2.15-0.46c-0.64-0.3-1.18-0.75-1.63-1.34c-0.45-0.59-0.79-1.32-1.02-2.2
		c-0.24-0.87-0.36-1.86-0.36-2.97c0-1.08,0.11-2.04,0.32-2.89c0.22-0.85,0.55-1.57,0.99-2.17c0.44-0.6,0.99-1.06,1.65-1.38
		c0.67-0.32,1.44-0.48,2.32-0.48c0.69,0,1.27,0.08,1.74,0.24c0.46,0.15,0.87,0.33,1.2,0.53c0.34,0.19,0.63,0.37,0.88,0.53
		c0.24,0.15,0.49,0.23,0.75,0.23c0.27,0,0.48-0.05,0.62-0.16C149.65,79.2,149.8,79.05,149.95,78.86z M163.51,77.72
		c0.75,0,1.4,0.12,1.95,0.38c0.56,0.25,1.02,0.59,1.38,1.03c0.37,0.43,0.64,0.94,0.82,1.52c0.17,0.58,0.26,1.19,0.26,1.85h-9.42
		c0.23-1.53,0.75-2.71,1.58-3.54S162.05,77.72,163.51,77.72z M163.41,74.08c-1.56,0-2.95,0.27-4.19,0.82
		c-1.24,0.54-2.29,1.28-3.15,2.22c-0.86,0.93-1.52,2.03-1.98,3.29c-0.46,1.26-0.69,2.61-0.69,4.04c0,1.84,0.26,3.46,0.79,4.85
		c0.53,1.4,1.25,2.57,2.17,3.52c0.92,0.95,2.01,1.66,3.25,2.15c1.25,0.48,2.6,0.72,4.04,0.72c0.74,0,1.49-0.05,2.27-0.16
		c0.78-0.11,1.54-0.3,2.29-0.56c0.76-0.27,1.48-0.62,2.17-1.06c0.69-0.45,1.31-0.99,1.87-1.65l-1.47-1.84
		c-0.1-0.15-0.23-0.27-0.38-0.35c-0.15-0.08-0.33-0.13-0.53-0.13c-0.31,0-0.63,0.1-0.97,0.29c-0.33,0.19-0.71,0.4-1.15,0.63
		s-0.96,0.44-1.55,0.63c-0.59,0.19-1.29,0.28-2.1,0.28c-1.65,0-2.98-0.5-3.98-1.5s-1.58-2.57-1.73-4.71h12.88
		c0.23,0,0.42-0.03,0.57-0.09c0.15-0.06,0.27-0.16,0.35-0.31c0.09-0.14,0.15-0.34,0.19-0.59c0.03-0.26,0.05-0.57,0.05-0.96
		c0-1.51-0.22-2.86-0.67-4.04c-0.45-1.19-1.07-2.18-1.87-3c-0.8-0.81-1.75-1.43-2.85-1.85C165.93,74.29,164.72,74.08,163.41,74.08z
		 M176.73,95.37h5.02V80.03c0.54-0.63,1.13-1.12,1.76-1.48c0.63-0.37,1.3-0.55,2.02-0.55c1.09,0,1.92,0.32,2.49,0.96
		c0.56,0.64,0.84,1.67,0.84,3.07v13.34h5.04V82.03c0-0.66,0.09-1.23,0.28-1.74c0.19-0.5,0.45-0.92,0.78-1.25
		c0.33-0.34,0.72-0.59,1.16-0.77s0.92-0.27,1.43-0.27c1.13,0,1.98,0.34,2.56,1.01c0.58,0.68,0.87,1.68,0.87,3.02v13.34H206V82.03
		c0-1.27-0.16-2.39-0.48-3.37s-0.78-1.81-1.39-2.49c-0.61-0.69-1.36-1.2-2.25-1.56c-0.9-0.35-1.92-0.53-3.07-0.53
		c-0.66,0-1.32,0.08-1.98,0.23s-1.28,0.38-1.86,0.69c-0.58,0.31-1.12,0.72-1.6,1.22c-0.49,0.49-0.9,1.09-1.22,1.78
		c-0.42-1.18-1.05-2.13-1.9-2.85c-0.85-0.71-1.93-1.07-3.24-1.07c-0.62,0-1.19,0.07-1.72,0.22c-0.52,0.14-1,0.33-1.46,0.58
		c-0.45,0.24-0.88,0.54-1.28,0.88c-0.4,0.34-0.78,0.71-1.14,1.12l-0.33-1.55c-0.2-0.62-0.63-0.92-1.28-0.92h-3.07V95.37z"/>
</g>
<path fill-rule="evenodd" clip-rule="evenodd" fill="#CC0033" d="M104,24.7c24.09,0,45.61,11.02,59.79,28.3h27.41
	C174.05,22.56,141.43,2,104,2c-24.26,0-46.5,8.64-63.81,23H58v14.87C70.85,30.34,86.77,24.7,104,24.7z M24.42,41.42
	C11.61,58.24,4,79.23,4,102c0,55.23,44.77,100,100,100c36.6,0,68.61-19.66,86.03-49h-27.94c-14.17,16.12-34.94,26.3-58.09,26.3
	c-42.69,0-77.3-34.61-77.3-77.3c0-16.49,5.17-31.78,13.97-44.33L52,69V29H12L24.42,41.42z"/>
</svg>
