<?xml version="1.0" encoding="utf-8"?>
<!-- Generator: Adobe Illustrator 13.0.0, SVG Export Plug-In . SVG Version: 6.00 Build 14948)  -->
<!DOCTYPE svg PUBLIC "-//W3C//DTD SVG 1.1//EN" "http://www.w3.org/Graphics/SVG/1.1/DTD/svg11.dtd">
<svg version="1.1" id="Layer_1" xmlns="http://www.w3.org/2000/svg" xmlns:xlink="http://www.w3.org/1999/xlink" x="0px" y="0px"
	 width="524.65px" height="200px" viewBox="0 0 524.65 200" enable-background="new 0 0 524.65 200" xml:space="preserve">
<path fill-rule="evenodd" clip-rule="evenodd" fill="#CC9900" d="M0,61.38h9.68V36.71c1-2.11,2.21-3.71,3.65-4.8
	c1.44-1.1,3.16-1.64,5.17-1.64c1.13,0,2.03,0.09,2.71,0.27s1.21,0.27,1.6,0.27c0.45,0,0.8-0.1,1.06-0.29
	c0.26-0.2,0.43-0.52,0.51-0.99l1.26-7.14C24.33,21.46,22.68,21,20.7,21c-2.41,0-4.58,0.71-6.51,2.13c-1.93,1.43-3.62,3.37-5.06,5.82
	l-0.58-4.78c-0.13-0.88-0.4-1.5-0.79-1.86s-1.08-0.54-2.08-0.54H0V61.38z M50.79,28.03c1.44,0,2.69,0.23,3.76,0.71
	c1.08,0.48,1.96,1.13,2.67,1.95c0.71,0.82,1.23,1.78,1.57,2.88c0.34,1.09,0.51,2.25,0.51,3.49H41.11c0.44-2.88,1.46-5.11,3.06-6.68
	C45.76,28.81,47.97,28.03,50.79,28.03z M50.59,21.15c-3,0-5.7,0.52-8.09,1.55c-2.39,1.03-4.42,2.43-6.08,4.19
	c-1.66,1.77-2.93,3.84-3.82,6.22c-0.89,2.39-1.33,4.93-1.33,7.64c0,3.47,0.51,6.53,1.53,9.17s2.42,4.86,4.19,6.65
	c1.78,1.79,3.87,3.14,6.27,4.06c2.41,0.91,5.01,1.37,7.81,1.37c1.41,0,2.86-0.1,4.37-0.31c1.5-0.2,2.98-0.56,4.43-1.06
	c1.45-0.5,2.84-1.17,4.17-2.01c1.33-0.83,2.54-1.87,3.61-3.11l-2.83-3.48c-0.2-0.29-0.45-0.51-0.74-0.66
	c-0.29-0.16-0.63-0.24-1.02-0.24c-0.6,0-1.22,0.18-1.86,0.54c-0.64,0.36-1.39,0.76-2.24,1.19c-0.85,0.44-1.84,0.83-2.97,1.19
	c-1.14,0.36-2.49,0.54-4.06,0.54c-3.19,0-5.75-0.95-7.69-2.84c-1.93-1.89-3.04-4.86-3.33-8.9h24.86c0.44,0,0.81-0.06,1.09-0.17
	c0.29-0.12,0.52-0.31,0.69-0.58c0.17-0.28,0.29-0.65,0.35-1.13c0.07-0.48,0.1-1.08,0.1-1.8c0-2.87-0.43-5.42-1.29-7.65
	c-0.87-2.24-2.07-4.12-3.61-5.66s-3.38-2.7-5.51-3.5C55.46,21.55,53.13,21.15,50.59,21.15z"/>
<path fill-rule="evenodd" clip-rule="evenodd" fill="#666666" d="M478.46,152.27c0,0.43,0.08,0.83,0.23,1.19
	c0.15,0.37,0.37,0.69,0.64,0.96c0.27,0.26,0.6,0.48,0.97,0.63c0.37,0.15,0.77,0.23,1.2,0.23c0.41,0,0.81-0.08,1.18-0.23
	c0.37-0.15,0.69-0.37,0.96-0.63c0.27-0.27,0.48-0.59,0.64-0.96c0.16-0.36,0.24-0.76,0.24-1.19c0-0.41-0.08-0.81-0.24-1.18
	c-0.16-0.38-0.37-0.7-0.64-0.97c-0.27-0.26-0.59-0.48-0.96-0.64c-0.37-0.16-0.77-0.24-1.18-0.24c-0.43,0-0.83,0.08-1.2,0.24
	c-0.37,0.16-0.7,0.38-0.97,0.64c-0.27,0.27-0.49,0.59-0.64,0.97C478.54,151.46,478.46,151.86,478.46,152.27z M497.22,137.72
	c0.73,0,1.37,0.12,1.92,0.37c0.55,0.25,1,0.58,1.36,1.01c0.36,0.43,0.63,0.92,0.8,1.49c0.17,0.57,0.26,1.17,0.26,1.81h-9.28
	c0.23-1.49,0.75-2.65,1.56-3.46S495.78,137.72,497.22,137.72z M497.12,134.16c-1.53,0-2.91,0.27-4.13,0.8
	c-1.22,0.53-2.25,1.26-3.1,2.17c-0.85,0.92-1.5,1.99-1.95,3.23c-0.45,1.23-0.68,2.55-0.68,3.95c0,1.8,0.26,3.39,0.78,4.75
	c0.52,1.37,1.23,2.52,2.14,3.45c0.91,0.92,1.97,1.63,3.2,2.1c1.23,0.47,2.55,0.71,3.98,0.71c0.72,0,1.46-0.05,2.23-0.16
	c0.77-0.11,1.52-0.29,2.26-0.55c0.74-0.26,1.45-0.61,2.13-1.04c0.68-0.43,1.29-0.97,1.84-1.61l-1.44-1.81
	c-0.11-0.14-0.23-0.26-0.38-0.34s-0.32-0.12-0.52-0.12c-0.31,0-0.62,0.09-0.95,0.28c-0.33,0.18-0.71,0.39-1.14,0.62
	c-0.43,0.22-0.94,0.43-1.52,0.61c-0.58,0.19-1.27,0.28-2.07,0.28c-1.63,0-2.93-0.49-3.92-1.47c-0.99-0.98-1.55-2.52-1.7-4.61h12.68
	c0.23,0,0.41-0.03,0.56-0.09s0.26-0.16,0.35-0.3c0.09-0.14,0.15-0.34,0.18-0.58c0.03-0.25,0.05-0.56,0.05-0.94
	c0-1.48-0.22-2.8-0.66-3.96c-0.44-1.16-1.05-2.13-1.84-2.93c-0.79-0.8-1.72-1.4-2.81-1.82C499.6,134.37,498.41,134.16,497.12,134.16
	z M522.82,138.48l1.12-1.78c-0.77-0.76-1.74-1.37-2.9-1.84c-1.16-0.47-2.45-0.7-3.86-0.7c-1.27,0-2.38,0.17-3.35,0.51
	c-0.97,0.34-1.77,0.79-2.42,1.36c-0.65,0.56-1.14,1.23-1.47,1.99c-0.33,0.75-0.5,1.55-0.5,2.39c0,0.91,0.14,1.68,0.43,2.32
	s0.67,1.18,1.14,1.62c0.47,0.44,1.01,0.8,1.62,1.09c0.61,0.28,1.23,0.53,1.86,0.75c0.63,0.21,1.25,0.41,1.86,0.59
	c0.61,0.18,1.15,0.38,1.62,0.61c0.47,0.22,0.85,0.49,1.14,0.79c0.29,0.31,0.43,0.7,0.43,1.18c0,0.32-0.06,0.63-0.19,0.93
	c-0.13,0.3-0.33,0.56-0.6,0.79s-0.62,0.41-1.04,0.55c-0.42,0.14-0.92,0.21-1.51,0.21c-0.75,0-1.36-0.09-1.85-0.26
	c-0.49-0.17-0.91-0.36-1.27-0.56c-0.36-0.2-0.68-0.39-0.95-0.56s-0.56-0.26-0.87-0.26c-0.31,0-0.56,0.06-0.76,0.18
	s-0.37,0.3-0.52,0.53l-1.14,1.89c0.4,0.36,0.86,0.69,1.39,1c0.53,0.31,1.1,0.57,1.72,0.8c0.62,0.23,1.27,0.4,1.94,0.53
	c0.67,0.13,1.36,0.19,2.07,0.19c1.32,0,2.49-0.17,3.51-0.51c1.021-0.34,1.88-0.81,2.57-1.42c0.69-0.61,1.22-1.33,1.58-2.16
	c0.36-0.83,0.54-1.74,0.54-2.73c0-0.83-0.14-1.53-0.43-2.12c-0.29-0.59-0.67-1.09-1.14-1.51c-0.47-0.42-1.01-0.77-1.61-1.04
	s-1.21-0.52-1.84-0.73c-0.63-0.21-1.24-0.41-1.84-0.59c-0.6-0.18-1.14-0.38-1.61-0.61s-0.85-0.49-1.14-0.79
	c-0.29-0.3-0.43-0.67-0.43-1.11c0-0.67,0.28-1.21,0.84-1.62c0.56-0.41,1.33-0.62,2.3-0.62c0.63,0,1.17,0.07,1.63,0.2
	s0.87,0.28,1.23,0.45l0.95,0.45c0.27,0.13,0.53,0.2,0.77,0.2c0.23,0,0.41-0.05,0.56-0.13C522.55,138.84,522.69,138.69,522.82,138.48
	z"/>
<path fill-rule="evenodd" clip-rule="evenodd" fill="#CC0033" d="M136.5,117.35c-4.33,0-7.53-1.44-9.6-4.33
	c-2.07-2.89-3.1-7.09-3.1-12.6c0-5.5,1.03-9.72,3.1-12.64c2.07-2.92,5.27-4.38,9.6-4.38c4.27,0,7.42,1.45,9.48,4.36
	c2.04,2.9,3.07,7.12,3.07,12.66c0,5.55-1.03,9.75-3.07,12.62C143.92,115.91,140.77,117.35,136.5,117.35z M136.5,73.95
	c-3.83,0-7.32,0.62-10.45,1.85c-3.13,1.23-5.81,2.98-8.03,5.25c-2.21,2.27-3.93,5.03-5.14,8.3c-1.22,3.27-1.83,6.92-1.83,10.95
	c0,4.07,0.61,7.73,1.83,11c1.21,3.27,2.93,6.05,5.14,8.35c2.22,2.3,4.9,4.07,8.03,5.3c3.13,1.23,6.62,1.85,10.45,1.85
	s7.31-0.62,10.42-1.85c3.12-1.23,5.78-3,7.98-5.3c2.2-2.3,3.9-5.08,5.1-8.35s1.8-6.93,1.8-11c0-4.03-0.6-7.68-1.8-10.95
	s-2.9-6.03-5.1-8.3c-2.2-2.27-4.86-4.02-7.98-5.25C143.81,74.57,140.33,73.95,136.5,73.95z M171.6,126h12.35V88.45
	c1.33-1.53,2.77-2.74,4.33-3.62c1.55-0.89,3.2-1.33,4.97-1.33c2.7,0,4.74,0.78,6.13,2.35c1.38,1.57,2.07,4.07,2.07,7.5V126h12.4
	V93.35c0-1.6,0.23-3.02,0.7-4.25c0.47-1.23,1.11-2.26,1.92-3.07c0.82-0.82,1.77-1.45,2.86-1.88c1.08-0.43,2.25-0.65,3.52-0.65
	c2.77,0,4.87,0.83,6.3,2.47c1.43,1.65,2.15,4.11,2.15,7.38V126h12.35V93.35c0-3.1-0.39-5.85-1.18-8.25c-0.78-2.4-1.92-4.43-3.42-6.1
	s-3.35-2.93-5.55-3.8c-2.2-0.87-4.72-1.3-7.55-1.3c-1.63,0-3.26,0.18-4.87,0.55c-1.62,0.37-3.15,0.93-4.58,1.7s-2.75,1.76-3.95,2.97
	c-1.2,1.22-2.2,2.68-3,4.38c-1.03-2.9-2.59-5.22-4.67-6.97c-2.09-1.75-4.75-2.63-7.98-2.63c-1.53,0-2.94,0.18-4.23,0.52
	c-1.28,0.36-2.48,0.83-3.59,1.43c-1.12,0.6-2.17,1.32-3.16,2.15c-0.98,0.83-1.92,1.75-2.82,2.75l-0.8-3.8
	c-0.5-1.5-1.55-2.25-3.15-2.25h-7.55V126z M277.05,82.8c1.83,0,3.43,0.31,4.8,0.92c1.37,0.62,2.5,1.46,3.4,2.53s1.57,2.31,2,3.72
	c0.43,1.42,0.65,2.93,0.65,4.53h-23.2c0.57-3.73,1.87-6.62,3.9-8.65C270.63,83.82,273.45,82.8,277.05,82.8z M276.8,73.9
	c-3.83,0-7.27,0.67-10.33,2c-3.05,1.34-5.63,3.15-7.75,5.43c-2.11,2.29-3.74,4.97-4.87,8.06c-1.13,3.09-1.7,6.38-1.7,9.88
	c0,4.51,0.65,8.47,1.95,11.89c1.3,3.42,3.08,6.29,5.35,8.61s4.93,4.07,8,5.25c3.07,1.19,6.38,1.78,9.95,1.78
	c1.8,0,3.66-0.13,5.57-0.4c1.92-0.27,3.81-0.73,5.66-1.37c1.84-0.66,3.62-1.52,5.32-2.61c1.7-1.08,3.23-2.42,4.6-4.02l-3.6-4.52
	c-0.27-0.37-0.58-0.65-0.95-0.85c-0.37-0.2-0.8-0.3-1.3-0.3c-0.77,0-1.56,0.23-2.37,0.69c-0.82,0.47-1.77,0.98-2.86,1.54
	c-1.08,0.57-2.34,1.08-3.8,1.54c-1.45,0.47-3.17,0.7-5.17,0.7c-4.07,0-7.33-1.23-9.8-3.68c-2.47-2.45-3.88-6.29-4.25-11.52h31.7
	c0.57,0,1.03-0.08,1.4-0.23c0.37-0.15,0.66-0.4,0.87-0.75c0.22-0.35,0.37-0.83,0.46-1.45c0.08-0.62,0.12-1.4,0.12-2.34
	c0-3.71-0.55-7.01-1.65-9.91c-1.1-2.89-2.63-5.33-4.6-7.32s-4.31-3.51-7.03-4.54C283.01,74.42,280.03,73.9,276.8,73.9z M309.6,126
	h12.35V94.05c1.27-2.73,2.82-4.81,4.65-6.22c1.83-1.42,4.03-2.13,6.6-2.13c1.43,0,2.58,0.12,3.45,0.35s1.55,0.35,2.05,0.35
	c0.57,0,1.02-0.12,1.35-0.37c0.33-0.25,0.55-0.68,0.65-1.28l1.6-9.25c-1.67-1.2-3.77-1.8-6.3-1.8c-3.07,0-5.83,0.92-8.3,2.76
	c-2.47,1.85-4.62,4.36-6.45,7.54l-0.75-6.2c-0.17-1.13-0.5-1.93-1-2.4c-0.5-0.47-1.38-0.7-2.65-0.7h-7.25V126z M386.65,85.6
	l3.25-4.5c-2.3-2.32-4.89-4.09-7.77-5.34c-2.89-1.24-6.25-1.86-10.08-1.86c-4.03,0-7.6,0.67-10.7,2c-3.1,1.34-5.7,3.18-7.8,5.53
	c-2.1,2.35-3.69,5.14-4.77,8.36c-1.09,3.22-1.63,6.72-1.63,10.49c0,4.2,0.61,7.94,1.82,11.23c1.22,3.29,2.87,6.07,4.95,8.33
	c2.09,2.27,4.53,4,7.33,5.18c2.8,1.19,5.78,1.78,8.95,1.78c1.8,0,3.62-0.13,5.45-0.4s3.61-0.73,5.32-1.37
	c1.72-0.66,3.38-1.52,4.98-2.61c1.6-1.08,3.08-2.42,4.45-4.02l-3.55-4.53c-0.5-0.78-1.25-1.16-2.25-1.16
	c-0.77,0-1.46,0.24-2.07,0.72c-0.62,0.48-1.35,1.02-2.18,1.6c-0.83,0.58-1.86,1.11-3.07,1.6c-1.22,0.48-2.81,0.72-4.78,0.72
	s-3.73-0.37-5.3-1.12c-1.57-0.75-2.9-1.85-4-3.3c-1.1-1.45-1.94-3.24-2.53-5.37c-0.58-2.13-0.87-4.56-0.87-7.28
	c0-2.63,0.27-4.99,0.8-7.07c0.53-2.08,1.34-3.85,2.43-5.32c1.08-1.46,2.44-2.58,4.07-3.37c1.63-0.78,3.53-1.17,5.7-1.17
	c1.7,0,3.12,0.19,4.28,0.57c1.14,0.39,2.14,0.82,2.97,1.3c0.83,0.48,1.55,0.92,2.15,1.3c0.6,0.38,1.22,0.57,1.85,0.57
	c0.67,0,1.17-0.13,1.53-0.4C385.92,86.43,386.28,86.06,386.65,85.6z M420.05,82.8c1.83,0,3.43,0.31,4.8,0.92
	c1.37,0.62,2.5,1.46,3.4,2.53s1.57,2.31,2,3.72c0.43,1.42,0.65,2.93,0.65,4.53h-23.2c0.57-3.73,1.87-6.62,3.9-8.65
	C413.63,83.82,416.45,82.8,420.05,82.8z M419.8,73.9c-3.83,0-7.27,0.67-10.33,2c-3.05,1.34-5.63,3.15-7.75,5.43
	c-2.11,2.29-3.74,4.97-4.87,8.06c-1.13,3.09-1.7,6.38-1.7,9.88c0,4.51,0.65,8.47,1.95,11.89c1.3,3.42,3.08,6.29,5.35,8.61
	s4.93,4.07,8,5.25c3.07,1.19,6.38,1.78,9.95,1.78c1.8,0,3.66-0.13,5.57-0.4c1.92-0.27,3.81-0.73,5.66-1.37
	c1.84-0.66,3.62-1.52,5.32-2.61c1.7-1.08,3.23-2.42,4.6-4.02l-3.6-4.52c-0.27-0.37-0.58-0.65-0.95-0.85c-0.37-0.2-0.8-0.3-1.3-0.3
	c-0.77,0-1.56,0.23-2.37,0.69c-0.82,0.47-1.77,0.98-2.86,1.54c-1.08,0.57-2.34,1.08-3.8,1.54c-1.45,0.47-3.17,0.7-5.17,0.7
	c-4.07,0-7.33-1.23-9.8-3.68c-2.47-2.45-3.88-6.29-4.25-11.52h31.7c0.57,0,1.03-0.08,1.4-0.23c0.37-0.15,0.66-0.4,0.87-0.75
	c0.22-0.35,0.37-0.83,0.46-1.45c0.08-0.62,0.12-1.4,0.12-2.34c0-3.71-0.55-7.01-1.65-9.91c-1.1-2.89-2.63-5.33-4.6-7.32
	s-4.31-3.51-7.03-4.54C426.01,74.42,423.03,73.9,419.8,73.9z M452.6,126h12.35V88.45c1.33-1.53,2.77-2.74,4.33-3.62
	c1.55-0.89,3.2-1.33,4.97-1.33c2.7,0,4.74,0.78,6.13,2.35c1.38,1.57,2.07,4.07,2.07,7.5V126h12.4V93.35c0-1.6,0.23-3.02,0.7-4.25
	c0.47-1.23,1.11-2.26,1.92-3.07c0.82-0.82,1.77-1.45,2.86-1.88c1.08-0.43,2.25-0.65,3.52-0.65c2.77,0,4.87,0.83,6.3,2.47
	c1.43,1.65,2.15,4.11,2.15,7.38V126h12.35V93.35c0-3.1-0.39-5.85-1.18-8.25c-0.78-2.4-1.92-4.43-3.42-6.1s-3.35-2.93-5.55-3.8
	c-2.2-0.87-4.72-1.3-7.55-1.3c-1.63,0-3.26,0.18-4.87,0.55c-1.62,0.37-3.15,0.93-4.58,1.7s-2.75,1.76-3.95,2.97
	c-1.2,1.22-2.2,2.68-3,4.38c-1.03-2.9-2.59-5.22-4.67-6.97c-2.09-1.75-4.75-2.63-7.98-2.63c-1.53,0-2.94,0.18-4.23,0.52
	c-1.28,0.36-2.48,0.83-3.59,1.43c-1.12,0.6-2.17,1.32-3.16,2.15c-0.98,0.83-1.92,1.75-2.82,2.75l-0.8-3.8
	c-0.5-1.5-1.55-2.25-3.15-2.25h-7.55V126z"/>
<path fill-rule="evenodd" clip-rule="evenodd" fill="#CC0033" d="M169,22.7c24.09,0,45.61,11.02,59.79,28.3h27.41
	C239.05,20.56,206.43,0,169,0c-24.26,0-46.5,8.64-63.81,23H123v14.87C135.85,28.34,151.77,22.7,169,22.7z M89.42,39.42
	C76.61,56.24,69,77.23,69,100c0,55.23,44.77,100,100,100c36.6,0,68.61-19.66,86.03-49h-27.94c-14.17,16.12-34.94,26.3-58.09,26.3
	c-42.69,0-77.3-34.61-77.3-77.3c0-16.49,5.17-31.78,13.97-44.33L117,67V27H77L89.42,39.42z"/>
<path fill-rule="evenodd" clip-rule="evenodd" fill="#CC9900" d="M375.75,144.5c1.75-7-12.03-6.59-16.39-7.16
	c0,0-0.23-11.58,3.27-10.22c6.32,2.48,4.12,1.63,12.37,0.75c0.12-0.01-2,4.38-2,4.38c5.17,1.27,14,5.25,13.5,11
	C384.97,160.9,358,157.76,355,154c-3-3.75-3.77-10,2.75-9C364.25,146,373.43,153.8,375.75,144.5z"/>
</svg>
